<mxfile host="app.diagrams.net" agent="Mozilla/5.0 (Macintosh; Intel Mac OS X 10_15_7) AppleWebKit/605.1.15 (KHTML, like Gecko) Version/18.3 Safari/605.1.15" version="26.0.16">
  <diagram name="第 1 页" id="7BNkAPBlkhEjI7NNNy0N">
    <mxGraphModel dx="1018" dy="612" grid="1" gridSize="10" guides="1" tooltips="1" connect="1" arrows="1" fold="1" page="1" pageScale="1" pageWidth="827" pageHeight="1169" math="0" shadow="0">
      <root>
        <mxCell id="0" />
        <mxCell id="1" parent="0" />
        <mxCell id="Dud1PbT-B_5KXJvCq5s--25" value="" style="rounded=0;whiteSpace=wrap;html=1;fontStyle=1;fillColor=#FFFFCC;glass=0;fontFamily=Times New Roman;" vertex="1" parent="1">
          <mxGeometry x="10" y="80" width="350" height="290" as="geometry" />
        </mxCell>
        <mxCell id="Dud1PbT-B_5KXJvCq5s--26" style="edgeStyle=none;shape=connector;rounded=0;orthogonalLoop=1;jettySize=auto;html=1;exitX=0.5;exitY=0;exitDx=0;exitDy=0;entryX=0.5;entryY=1;entryDx=0;entryDy=0;strokeColor=default;align=center;verticalAlign=middle;fontFamily=Times New Roman;fontSize=11;fontColor=default;labelBackgroundColor=default;endArrow=classic;endSize=3;fontStyle=1" edge="1" source="Dud1PbT-B_5KXJvCq5s--30" target="Dud1PbT-B_5KXJvCq5s--46" parent="1">
          <mxGeometry relative="1" as="geometry" />
        </mxCell>
        <mxCell id="Dud1PbT-B_5KXJvCq5s--27" value="父亲" style="edgeLabel;html=1;align=center;verticalAlign=middle;resizable=0;points=[];fontFamily=Times New Roman;fontSize=11;fontColor=default;labelBackgroundColor=none;fontStyle=1;rotation=60;" vertex="1" connectable="0" parent="Dud1PbT-B_5KXJvCq5s--26">
          <mxGeometry x="0.0378" y="2" relative="1" as="geometry">
            <mxPoint x="17" y="3" as="offset" />
          </mxGeometry>
        </mxCell>
        <mxCell id="Dud1PbT-B_5KXJvCq5s--30" value="乔治" style="rounded=0;whiteSpace=wrap;html=1;fontFamily=Times New Roman;fontSize=11;fontColor=default;labelBackgroundColor=none;fontStyle=1;fillColor=#EA6B66;" vertex="1" parent="1">
          <mxGeometry x="300" y="230" width="50" height="20" as="geometry" />
        </mxCell>
        <mxCell id="Dud1PbT-B_5KXJvCq5s--34" value="配偶" style="edgeStyle=none;shape=connector;rounded=0;orthogonalLoop=1;jettySize=auto;html=1;exitX=1;exitY=0.5;exitDx=0;exitDy=0;entryX=0;entryY=0.5;entryDx=0;entryDy=0;strokeColor=default;align=center;verticalAlign=middle;fontFamily=Times New Roman;fontSize=11;fontColor=default;labelBackgroundColor=none;endArrow=classic;endSize=3;fontStyle=1" edge="1" source="Dud1PbT-B_5KXJvCq5s--35" target="Dud1PbT-B_5KXJvCq5s--30" parent="1">
          <mxGeometry x="0.0909" y="10" relative="1" as="geometry">
            <mxPoint as="offset" />
          </mxGeometry>
        </mxCell>
        <mxCell id="Dud1PbT-B_5KXJvCq5s--35" value="&lt;font&gt;&lt;span style=&quot;caret-color: rgb(255, 102, 102); color: rgb(0, 0, 0);&quot;&gt;玛丽&lt;/span&gt;&lt;/font&gt;" style="rounded=0;whiteSpace=wrap;html=1;fontFamily=Times New Roman;fontSize=11;fontColor=default;labelBackgroundColor=none;fontStyle=1;strokeColor=default;fillColor=#FFCE9F;" vertex="1" parent="1">
          <mxGeometry x="140" y="230" width="50" height="20" as="geometry" />
        </mxCell>
        <mxCell id="Dud1PbT-B_5KXJvCq5s--39" style="edgeStyle=none;shape=connector;rounded=0;orthogonalLoop=1;jettySize=auto;html=1;exitX=1;exitY=1;exitDx=0;exitDy=0;entryX=0;entryY=0;entryDx=0;entryDy=0;strokeColor=default;align=center;verticalAlign=middle;fontFamily=Times New Roman;fontSize=11;fontColor=default;labelBackgroundColor=default;endArrow=classic;endSize=3;fontStyle=1;dashed=1;" edge="1" source="Dud1PbT-B_5KXJvCq5s--43" target="Dud1PbT-B_5KXJvCq5s--35" parent="1">
          <mxGeometry relative="1" as="geometry" />
        </mxCell>
        <mxCell id="Dud1PbT-B_5KXJvCq5s--40" value="&lt;font style=&quot;font-size: 15px;&quot;&gt;？&lt;/font&gt;" style="edgeLabel;html=1;align=center;verticalAlign=middle;resizable=0;points=[];fontFamily=Times New Roman;fontSize=11;fontColor=default;labelBackgroundColor=none;fontStyle=1;rotation=40;" vertex="1" connectable="0" parent="Dud1PbT-B_5KXJvCq5s--39">
          <mxGeometry x="0.2288" relative="1" as="geometry">
            <mxPoint y="-13" as="offset" />
          </mxGeometry>
        </mxCell>
        <mxCell id="Dud1PbT-B_5KXJvCq5s--43" value="威廉" style="rounded=0;whiteSpace=wrap;html=1;fontFamily=Times New Roman;fontSize=11;fontColor=default;labelBackgroundColor=none;fontStyle=1;fillColor=#7EA6E0;" vertex="1" parent="1">
          <mxGeometry x="50" y="170" width="50" height="20" as="geometry" />
        </mxCell>
        <mxCell id="Dud1PbT-B_5KXJvCq5s--44" style="edgeStyle=none;shape=connector;rounded=0;orthogonalLoop=1;jettySize=auto;html=1;exitX=0.25;exitY=1;exitDx=0;exitDy=0;entryX=0.5;entryY=0;entryDx=0;entryDy=0;strokeColor=default;align=center;verticalAlign=middle;fontFamily=Times New Roman;fontSize=11;fontColor=default;labelBackgroundColor=default;endArrow=classic;endSize=3;fontStyle=1" edge="1" source="Dud1PbT-B_5KXJvCq5s--46" target="Dud1PbT-B_5KXJvCq5s--35" parent="1">
          <mxGeometry relative="1" as="geometry" />
        </mxCell>
        <mxCell id="Dud1PbT-B_5KXJvCq5s--45" value="儿子" style="edgeLabel;html=1;align=center;verticalAlign=middle;resizable=0;points=[];fontFamily=Times New Roman;fontSize=11;fontColor=default;labelBackgroundColor=none;fontStyle=1;rotation=-50;" vertex="1" connectable="0" parent="Dud1PbT-B_5KXJvCq5s--44">
          <mxGeometry x="-0.0753" y="-1" relative="1" as="geometry">
            <mxPoint x="-11" y="-1" as="offset" />
          </mxGeometry>
        </mxCell>
        <mxCell id="Dud1PbT-B_5KXJvCq5s--46" value="哈利" style="rounded=0;whiteSpace=wrap;html=1;fontFamily=Times New Roman;fontSize=11;fontColor=default;labelBackgroundColor=none;fontStyle=1;fillColor=#CCFF99;" vertex="1" parent="1">
          <mxGeometry x="220" y="120" width="50" height="20" as="geometry" />
        </mxCell>
        <mxCell id="Dud1PbT-B_5KXJvCq5s--74" value="" style="rounded=0;whiteSpace=wrap;html=1;fontStyle=1;fillColor=#FFFFCC;fontFamily=Times New Roman;" vertex="1" parent="1">
          <mxGeometry x="360" y="80" width="340" height="290" as="geometry" />
        </mxCell>
        <mxCell id="Dud1PbT-B_5KXJvCq5s--75" style="edgeStyle=none;shape=connector;rounded=0;orthogonalLoop=1;jettySize=auto;html=1;exitX=0.5;exitY=0;exitDx=0;exitDy=0;entryX=0.5;entryY=1;entryDx=0;entryDy=0;strokeColor=default;align=center;verticalAlign=middle;fontFamily=Times New Roman;fontSize=11;fontColor=default;labelBackgroundColor=default;endArrow=classic;endSize=3;fontStyle=1" edge="1" source="Dud1PbT-B_5KXJvCq5s--77" target="Dud1PbT-B_5KXJvCq5s--85" parent="1">
          <mxGeometry relative="1" as="geometry" />
        </mxCell>
        <mxCell id="Dud1PbT-B_5KXJvCq5s--76" value="父亲" style="edgeLabel;html=1;align=center;verticalAlign=middle;resizable=0;points=[];fontFamily=Times New Roman;fontSize=11;fontColor=default;labelBackgroundColor=none;fontStyle=1;rotation=60;" vertex="1" connectable="0" parent="Dud1PbT-B_5KXJvCq5s--75">
          <mxGeometry x="0.0378" y="2" relative="1" as="geometry">
            <mxPoint x="17" y="3" as="offset" />
          </mxGeometry>
        </mxCell>
        <mxCell id="Dud1PbT-B_5KXJvCq5s--77" value="乔治" style="rounded=0;whiteSpace=wrap;html=1;fontFamily=Times New Roman;fontSize=11;fontColor=default;labelBackgroundColor=none;fontStyle=1;fillColor=#EA6B66;" vertex="1" parent="1">
          <mxGeometry x="630" y="230" width="50" height="20" as="geometry" />
        </mxCell>
        <mxCell id="Dud1PbT-B_5KXJvCq5s--78" value="配偶" style="edgeStyle=none;shape=connector;rounded=0;orthogonalLoop=1;jettySize=auto;html=1;exitX=1;exitY=0.5;exitDx=0;exitDy=0;entryX=0;entryY=0.5;entryDx=0;entryDy=0;strokeColor=default;align=center;verticalAlign=middle;fontFamily=Times New Roman;fontSize=11;fontColor=default;labelBackgroundColor=none;endArrow=classic;endSize=3;fontStyle=1" edge="1" source="Dud1PbT-B_5KXJvCq5s--79" target="Dud1PbT-B_5KXJvCq5s--77" parent="1">
          <mxGeometry x="0.0909" y="10" relative="1" as="geometry">
            <mxPoint as="offset" />
          </mxGeometry>
        </mxCell>
        <mxCell id="Dud1PbT-B_5KXJvCq5s--79" value="&lt;font&gt;&lt;span style=&quot;caret-color: rgb(255, 102, 102); color: rgb(0, 0, 0);&quot;&gt;玛丽&lt;/span&gt;&lt;/font&gt;" style="rounded=0;whiteSpace=wrap;html=1;fontFamily=Times New Roman;fontSize=11;fontColor=default;labelBackgroundColor=none;fontStyle=1;strokeColor=default;fillColor=#FFCE9F;" vertex="1" parent="1">
          <mxGeometry x="470" y="230" width="50" height="20" as="geometry" />
        </mxCell>
        <mxCell id="Dud1PbT-B_5KXJvCq5s--80" style="edgeStyle=none;shape=connector;rounded=0;orthogonalLoop=1;jettySize=auto;html=1;exitX=1;exitY=1;exitDx=0;exitDy=0;entryX=0;entryY=0;entryDx=0;entryDy=0;strokeColor=#FF3333;align=center;verticalAlign=middle;fontFamily=Times New Roman;fontSize=11;fontColor=default;labelBackgroundColor=default;endArrow=classic;endSize=3;fontStyle=1;" edge="1" source="Dud1PbT-B_5KXJvCq5s--82" target="Dud1PbT-B_5KXJvCq5s--79" parent="1">
          <mxGeometry relative="1" as="geometry" />
        </mxCell>
        <mxCell id="Dud1PbT-B_5KXJvCq5s--81" value="&lt;span&gt;侄子&lt;/span&gt;" style="edgeLabel;html=1;align=center;verticalAlign=middle;resizable=0;points=[];fontFamily=Times New Roman;fontSize=11;fontColor=default;labelBackgroundColor=none;fontStyle=1;rotation=45;" vertex="1" connectable="0" parent="Dud1PbT-B_5KXJvCq5s--80">
          <mxGeometry x="0.2288" relative="1" as="geometry">
            <mxPoint y="-13" as="offset" />
          </mxGeometry>
        </mxCell>
        <mxCell id="Dud1PbT-B_5KXJvCq5s--124" style="rounded=0;orthogonalLoop=1;jettySize=auto;html=1;exitX=1;exitY=0.5;exitDx=0;exitDy=0;entryX=0;entryY=0;entryDx=0;entryDy=0;dashed=1;labelBackgroundColor=none;" edge="1" parent="1" source="Dud1PbT-B_5KXJvCq5s--82" target="Dud1PbT-B_5KXJvCq5s--77">
          <mxGeometry relative="1" as="geometry" />
        </mxCell>
        <mxCell id="Dud1PbT-B_5KXJvCq5s--125" value="?" style="edgeLabel;html=1;align=center;verticalAlign=middle;resizable=0;points=[];labelBackgroundColor=none;rotation=15;fontSize=15;" vertex="1" connectable="0" parent="Dud1PbT-B_5KXJvCq5s--124">
          <mxGeometry x="0.161" y="-1" relative="1" as="geometry">
            <mxPoint x="4" y="-10" as="offset" />
          </mxGeometry>
        </mxCell>
        <mxCell id="Dud1PbT-B_5KXJvCq5s--82" value="威廉" style="rounded=0;whiteSpace=wrap;html=1;fontFamily=Times New Roman;fontSize=11;fontColor=default;labelBackgroundColor=none;fontStyle=1;fillColor=#7EA6E0;" vertex="1" parent="1">
          <mxGeometry x="380" y="170" width="50" height="20" as="geometry" />
        </mxCell>
        <mxCell id="Dud1PbT-B_5KXJvCq5s--83" style="edgeStyle=none;shape=connector;rounded=0;orthogonalLoop=1;jettySize=auto;html=1;exitX=0.25;exitY=1;exitDx=0;exitDy=0;entryX=0.5;entryY=0;entryDx=0;entryDy=0;strokeColor=default;align=center;verticalAlign=middle;fontFamily=Times New Roman;fontSize=11;fontColor=default;labelBackgroundColor=default;endArrow=classic;endSize=3;fontStyle=1" edge="1" source="Dud1PbT-B_5KXJvCq5s--85" target="Dud1PbT-B_5KXJvCq5s--79" parent="1">
          <mxGeometry relative="1" as="geometry" />
        </mxCell>
        <mxCell id="Dud1PbT-B_5KXJvCq5s--84" value="儿子" style="edgeLabel;html=1;align=center;verticalAlign=middle;resizable=0;points=[];fontFamily=Times New Roman;fontSize=11;fontColor=default;labelBackgroundColor=none;fontStyle=1;rotation=-50;" vertex="1" connectable="0" parent="Dud1PbT-B_5KXJvCq5s--83">
          <mxGeometry x="-0.0753" y="-1" relative="1" as="geometry">
            <mxPoint x="-11" y="-1" as="offset" />
          </mxGeometry>
        </mxCell>
        <mxCell id="Dud1PbT-B_5KXJvCq5s--85" value="哈利" style="rounded=0;whiteSpace=wrap;html=1;fontFamily=Times New Roman;fontSize=11;fontColor=default;labelBackgroundColor=none;fontStyle=1;fillColor=#CCFF99;" vertex="1" parent="1">
          <mxGeometry x="550" y="120" width="50" height="20" as="geometry" />
        </mxCell>
        <mxCell id="Dud1PbT-B_5KXJvCq5s--110" value="&lt;b&gt;&lt;span style=&quot;color: rgb(0, 0, 0);&quot;&gt;文本：1. &lt;/span&gt;&lt;span style=&quot;color: rgb(255, 206, 159);&quot;&gt;玛丽&lt;/span&gt;的姐姐有一个儿子，名字叫&lt;span style=&quot;color: rgb(126, 166, 224);&quot;&gt;威廉&lt;/span&gt;&lt;/b&gt;" style="text;html=1;align=center;verticalAlign=middle;whiteSpace=wrap;rounded=0;strokeColor=#FF3333;dashed=1;dashPattern=8 8;strokeWidth=1;fontFamily=Times New Roman;" vertex="1" parent="1">
          <mxGeometry x="50" y="260" width="270" height="30" as="geometry" />
        </mxCell>
        <mxCell id="Dud1PbT-B_5KXJvCq5s--111" value="&lt;b&gt;&lt;span style=&quot;color: rgb(0, 0, 0);&quot;&gt;逻辑规则1.&amp;nbsp;&lt;/span&gt;&lt;/b&gt;&lt;b&gt;&lt;span style=&quot;color: rgb(255, 51, 51);&quot;&gt;侄子（X, Y) ∩ 配偶（Y, Z)&lt;/span&gt;&amp;nbsp;&lt;span style=&quot;text-align: start;&quot;&gt;→ 侄子(X,Z)&lt;/span&gt;&lt;/b&gt;" style="text;html=1;align=center;verticalAlign=middle;whiteSpace=wrap;rounded=0;strokeColor=default;strokeWidth=1;fontFamily=Times New Roman;" vertex="1" parent="1">
          <mxGeometry x="395" y="300" width="285" height="30" as="geometry" />
        </mxCell>
        <mxCell id="Dud1PbT-B_5KXJvCq5s--113" value="&lt;font face=&quot;Times New Roman&quot;&gt;&lt;b&gt;规则库：侄子（X, Y) ∩ 配偶（Y, Z)&amp;nbsp;&lt;span style=&quot;text-align: start;&quot;&gt;→ 侄子(X,Z)&lt;/span&gt;&lt;/b&gt;&lt;/font&gt;" style="text;html=1;align=center;verticalAlign=middle;whiteSpace=wrap;rounded=0;strokeColor=default;strokeWidth=1;fontFamily=Times New Roman;" vertex="1" parent="1">
          <mxGeometry x="50" y="300" width="270" height="30" as="geometry" />
        </mxCell>
        <mxCell id="Dud1PbT-B_5KXJvCq5s--127" value="" style="rounded=0;whiteSpace=wrap;html=1;fontStyle=1;fillColor=#FFFFCC;fontFamily=Times New Roman;" vertex="1" parent="1">
          <mxGeometry x="700" y="80" width="330" height="290" as="geometry" />
        </mxCell>
        <mxCell id="Dud1PbT-B_5KXJvCq5s--128" style="edgeStyle=none;shape=connector;rounded=0;orthogonalLoop=1;jettySize=auto;html=1;exitX=0.5;exitY=0;exitDx=0;exitDy=0;entryX=0.5;entryY=1;entryDx=0;entryDy=0;strokeColor=default;align=center;verticalAlign=middle;fontFamily=Times New Roman;fontSize=11;fontColor=default;labelBackgroundColor=default;endArrow=classic;endSize=3;fontStyle=1" edge="1" source="Dud1PbT-B_5KXJvCq5s--130" target="Dud1PbT-B_5KXJvCq5s--140" parent="1">
          <mxGeometry relative="1" as="geometry" />
        </mxCell>
        <mxCell id="Dud1PbT-B_5KXJvCq5s--129" value="父亲" style="edgeLabel;html=1;align=center;verticalAlign=middle;resizable=0;points=[];fontFamily=Times New Roman;fontSize=11;fontColor=default;labelBackgroundColor=none;fontStyle=1;rotation=60;" vertex="1" connectable="0" parent="Dud1PbT-B_5KXJvCq5s--128">
          <mxGeometry x="0.0378" y="2" relative="1" as="geometry">
            <mxPoint x="17" y="3" as="offset" />
          </mxGeometry>
        </mxCell>
        <mxCell id="Dud1PbT-B_5KXJvCq5s--130" value="乔治" style="rounded=0;whiteSpace=wrap;html=1;fontFamily=Times New Roman;fontSize=11;fontColor=default;labelBackgroundColor=none;fontStyle=1;fillColor=#EA6B66;" vertex="1" parent="1">
          <mxGeometry x="960" y="230" width="50" height="20" as="geometry" />
        </mxCell>
        <mxCell id="Dud1PbT-B_5KXJvCq5s--131" value="配偶" style="edgeStyle=none;shape=connector;rounded=0;orthogonalLoop=1;jettySize=auto;html=1;exitX=1;exitY=0.5;exitDx=0;exitDy=0;entryX=0;entryY=0.5;entryDx=0;entryDy=0;strokeColor=default;align=center;verticalAlign=middle;fontFamily=Times New Roman;fontSize=11;fontColor=default;labelBackgroundColor=none;endArrow=classic;endSize=3;fontStyle=1" edge="1" source="Dud1PbT-B_5KXJvCq5s--132" target="Dud1PbT-B_5KXJvCq5s--130" parent="1">
          <mxGeometry x="0.0909" y="10" relative="1" as="geometry">
            <mxPoint as="offset" />
          </mxGeometry>
        </mxCell>
        <mxCell id="Dud1PbT-B_5KXJvCq5s--132" value="&lt;font&gt;&lt;span style=&quot;caret-color: rgb(255, 102, 102); color: rgb(0, 0, 0);&quot;&gt;玛丽&lt;/span&gt;&lt;/font&gt;" style="rounded=0;whiteSpace=wrap;html=1;fontFamily=Times New Roman;fontSize=11;fontColor=default;labelBackgroundColor=none;fontStyle=1;strokeColor=default;fillColor=#FFCE9F;" vertex="1" parent="1">
          <mxGeometry x="800" y="230" width="50" height="20" as="geometry" />
        </mxCell>
        <mxCell id="Dud1PbT-B_5KXJvCq5s--133" style="edgeStyle=none;shape=connector;rounded=0;orthogonalLoop=1;jettySize=auto;html=1;exitX=1;exitY=1;exitDx=0;exitDy=0;entryX=0;entryY=0;entryDx=0;entryDy=0;strokeColor=#FF3333;align=center;verticalAlign=middle;fontFamily=Times New Roman;fontSize=11;fontColor=default;labelBackgroundColor=default;endArrow=classic;endSize=3;fontStyle=1;" edge="1" source="Dud1PbT-B_5KXJvCq5s--137" target="Dud1PbT-B_5KXJvCq5s--132" parent="1">
          <mxGeometry relative="1" as="geometry" />
        </mxCell>
        <mxCell id="Dud1PbT-B_5KXJvCq5s--134" value="&lt;span&gt;侄子&lt;/span&gt;" style="edgeLabel;html=1;align=center;verticalAlign=middle;resizable=0;points=[];fontFamily=Times New Roman;fontSize=11;fontColor=default;labelBackgroundColor=none;fontStyle=1;rotation=45;" vertex="1" connectable="0" parent="Dud1PbT-B_5KXJvCq5s--133">
          <mxGeometry x="0.2288" relative="1" as="geometry">
            <mxPoint y="-13" as="offset" />
          </mxGeometry>
        </mxCell>
        <mxCell id="Dud1PbT-B_5KXJvCq5s--135" style="rounded=0;orthogonalLoop=1;jettySize=auto;html=1;exitX=1;exitY=0.5;exitDx=0;exitDy=0;entryX=0;entryY=0;entryDx=0;entryDy=0;dashed=1;labelBackgroundColor=none;strokeColor=#00994D;" edge="1" source="Dud1PbT-B_5KXJvCq5s--137" target="Dud1PbT-B_5KXJvCq5s--130" parent="1">
          <mxGeometry relative="1" as="geometry" />
        </mxCell>
        <mxCell id="Dud1PbT-B_5KXJvCq5s--136" value="侄子" style="edgeLabel;html=1;align=center;verticalAlign=middle;resizable=0;points=[];labelBackgroundColor=none;rotation=15;fontSize=12;fontFamily=Times New Roman;" vertex="1" connectable="0" parent="Dud1PbT-B_5KXJvCq5s--135">
          <mxGeometry x="0.161" y="-1" relative="1" as="geometry">
            <mxPoint x="4" y="-10" as="offset" />
          </mxGeometry>
        </mxCell>
        <mxCell id="Dud1PbT-B_5KXJvCq5s--137" value="威廉" style="rounded=0;whiteSpace=wrap;html=1;fontFamily=Times New Roman;fontSize=11;fontColor=default;labelBackgroundColor=none;fontStyle=1;fillColor=#7EA6E0;" vertex="1" parent="1">
          <mxGeometry x="710" y="170" width="50" height="20" as="geometry" />
        </mxCell>
        <mxCell id="Dud1PbT-B_5KXJvCq5s--138" style="edgeStyle=none;shape=connector;rounded=0;orthogonalLoop=1;jettySize=auto;html=1;exitX=0.25;exitY=1;exitDx=0;exitDy=0;entryX=0.5;entryY=0;entryDx=0;entryDy=0;strokeColor=default;align=center;verticalAlign=middle;fontFamily=Times New Roman;fontSize=11;fontColor=default;labelBackgroundColor=default;endArrow=classic;endSize=3;fontStyle=1" edge="1" source="Dud1PbT-B_5KXJvCq5s--140" target="Dud1PbT-B_5KXJvCq5s--132" parent="1">
          <mxGeometry relative="1" as="geometry" />
        </mxCell>
        <mxCell id="Dud1PbT-B_5KXJvCq5s--139" value="儿子" style="edgeLabel;html=1;align=center;verticalAlign=middle;resizable=0;points=[];fontFamily=Times New Roman;fontSize=11;fontColor=default;labelBackgroundColor=none;fontStyle=1;rotation=-50;" vertex="1" connectable="0" parent="Dud1PbT-B_5KXJvCq5s--138">
          <mxGeometry x="-0.0753" y="-1" relative="1" as="geometry">
            <mxPoint x="-11" y="-1" as="offset" />
          </mxGeometry>
        </mxCell>
        <mxCell id="Dud1PbT-B_5KXJvCq5s--140" value="哈利" style="rounded=0;whiteSpace=wrap;html=1;fontFamily=Times New Roman;fontSize=11;fontColor=default;labelBackgroundColor=none;fontStyle=1;fillColor=#CCFF99;" vertex="1" parent="1">
          <mxGeometry x="880" y="120" width="50" height="20" as="geometry" />
        </mxCell>
        <mxCell id="Dud1PbT-B_5KXJvCq5s--141" value="&lt;b&gt;&lt;span style=&quot;color: rgb(0, 0, 0);&quot;&gt;逻辑规则1.&amp;nbsp;&lt;/span&gt;&lt;/b&gt;&lt;b&gt;&lt;span style=&quot;color: rgb(255, 51, 51);&quot;&gt;侄子（X, Y) ∩ 配偶（Y, Z)&lt;/span&gt;&amp;nbsp;&lt;span style=&quot;text-align: start;&quot;&gt;→ &lt;span style=&quot;color: rgb(0, 153, 77);&quot;&gt;侄子(X,Z)&lt;/span&gt;&lt;/span&gt;&lt;/b&gt;" style="text;html=1;align=center;verticalAlign=middle;whiteSpace=wrap;rounded=0;strokeColor=default;strokeWidth=1;fontFamily=Times New Roman;" vertex="1" parent="1">
          <mxGeometry x="725" y="300" width="285" height="30" as="geometry" />
        </mxCell>
        <mxCell id="Dud1PbT-B_5KXJvCq5s--144" value="(a)" style="text;html=1;align=center;verticalAlign=middle;whiteSpace=wrap;rounded=0;" vertex="1" parent="1">
          <mxGeometry x="152.5" y="340" width="65" height="10" as="geometry" />
        </mxCell>
        <mxCell id="Dud1PbT-B_5KXJvCq5s--146" value="(b)" style="text;html=1;align=center;verticalAlign=middle;whiteSpace=wrap;rounded=0;" vertex="1" parent="1">
          <mxGeometry x="492.5" y="340" width="65" height="10" as="geometry" />
        </mxCell>
        <mxCell id="Dud1PbT-B_5KXJvCq5s--147" value="(c)" style="text;html=1;align=center;verticalAlign=middle;whiteSpace=wrap;rounded=0;" vertex="1" parent="1">
          <mxGeometry x="850" y="340" width="65" height="10" as="geometry" />
        </mxCell>
      </root>
    </mxGraphModel>
  </diagram>
</mxfile>
